<?xml version="1.0" encoding="UTF-8" standalone="no"?>
<!-- Created with Inkscape (http://www.inkscape.org/) -->

<svg
   width="48"
   height="48"
   viewBox="0 0 48 48"
   version="1.1"
   id="svg1"
   inkscape:version="1.4.2 (f4327f4, 2025-05-13)"
   sodipodi:docname="icono_v3_1.svg"
   xml:space="preserve"
   xmlns:inkscape="http://www.inkscape.org/namespaces/inkscape"
   xmlns:sodipodi="http://sodipodi.sourceforge.net/DTD/sodipodi-0.dtd"
   xmlns:xlink="http://www.w3.org/1999/xlink"
   xmlns="http://www.w3.org/2000/svg"
   xmlns:svg="http://www.w3.org/2000/svg"><sodipodi:namedview
     id="namedview1"
     pagecolor="#ffffff"
     bordercolor="#000000"
     borderopacity="0.25"
     inkscape:showpageshadow="2"
     inkscape:pageopacity="0.0"
     inkscape:pagecheckerboard="0"
     inkscape:deskcolor="#d1d1d1"
     inkscape:document-units="px"
     inkscape:zoom="8.9435315"
     inkscape:cx="-7.9386985"
     inkscape:cy="34.606017"
     inkscape:window-width="1920"
     inkscape:window-height="1111"
     inkscape:window-x="-9"
     inkscape:window-y="-9"
     inkscape:window-maximized="1"
     inkscape:current-layer="layer1" /><defs
     id="defs1"><linearGradient
       id="linearGradient11"
       inkscape:collect="always"><stop
         style="stop-color:#93bacd;stop-opacity:1;"
         offset="0"
         id="stop12" /><stop
         style="stop-color:#85b17d;stop-opacity:0;"
         offset="1"
         id="stop13" /></linearGradient><linearGradient
       id="linearGradient6"
       inkscape:collect="always"><stop
         style="stop-color:#e1ff97;stop-opacity:1;"
         offset="0"
         id="stop6" /><stop
         style="stop-color:#53fdff;stop-opacity:0;"
         offset="1"
         id="stop7" /></linearGradient><linearGradient
       inkscape:collect="always"
       xlink:href="#linearGradient6"
       id="linearGradient7"
       x1="1.071686"
       y1="14.993534"
       x2="7.8096053"
       y2="14.993534"
       gradientUnits="userSpaceOnUse"
       gradientTransform="matrix(2.5138692,0,0,1.875403,22.907794,0.51575718)" /><linearGradient
       inkscape:collect="always"
       xlink:href="#linearGradient11"
       id="linearGradient13"
       x1="8.7702664"
       y1="21.859654"
       x2="35.168521"
       y2="21.859654"
       gradientUnits="userSpaceOnUse" /></defs><g
     inkscape:label="Capa 1"
     inkscape:groupmode="layer"
     id="layer1"><path
       d="M 34.510021,10.083528 30.448812,4.5252645 H 9.4287664 V 39.194043 H 34.510021 Z"
       style="fill:url(#linearGradient13);fill-opacity:1;stroke:#000000;stroke-width:1.317;stroke-opacity:1;stroke-dasharray:none;stroke-linejoin:round"
       id="path9"
       inkscape:highlight-color="#262626" /><g
       id="g1"
       inkscape:label="key"><rect
         style="fill:#ffc024;fill-opacity:1;stroke:#262626;stroke-width:0;stroke-dasharray:none;stroke-opacity:1"
         id="rect11-1-2-2-8"
         width="2.0529315"
         height="2.1729877"
         x="-16.013298"
         y="44.86763"
         rx="0.48904097"
         transform="matrix(0.63527081,-0.77228945,0.78058218,0.62505316,0,0)" /><rect
         style="fill:#ffc024;fill-opacity:1;stroke:#262626;stroke-width:0;stroke-dasharray:none;stroke-opacity:1"
         id="rect11-1-2"
         width="2.0529315"
         height="2.1729877"
         x="-11.686812"
         y="44.753258"
         rx="0.48904097"
         transform="matrix(0.63527081,-0.77228945,0.78058218,0.62505316,0,0)" /><rect
         style="fill:#ffc024;fill-opacity:1;stroke:#262626;stroke-width:0;stroke-dasharray:none;stroke-opacity:1"
         id="rect11-1-2-2"
         width="2.0529315"
         height="2.1729877"
         x="-8.8925457"
         y="44.810444"
         rx="0.48904097"
         transform="matrix(0.63527081,-0.77228945,0.78058218,0.62505316,0,0)" /><rect
         style="fill:#ffc024;fill-opacity:1;stroke:#262626;stroke-width:0;stroke-dasharray:none;stroke-opacity:1"
         id="rect11-1-2-6"
         width="1.0834917"
         height="2.1729877"
         x="-13.226513"
         y="44.753258"
         rx="0.25810495"
         transform="matrix(0.63527081,-0.77228945,0.78058218,0.62505316,0,0)" /><rect
         style="fill:#ffc024;fill-opacity:1;stroke:#262626;stroke-width:0;stroke-dasharray:none;stroke-opacity:1"
         id="rect11"
         width="2.737242"
         height="2.1729877"
         x="-6.2112341"
         y="44.093544"
         rx="0.65205467"
         transform="matrix(0.63527081,-0.77228945,0.78058218,0.62505316,0,0)" /><path
         d="m 25.310332,41.154384 2.410409,1.930141 7.792726,-9.473503 c 0.499836,-0.607641 0.406268,-1.495312 -0.209602,-1.988469 l -0.18741,-0.150069 c -0.615868,-0.493159 -1.513561,-0.399244 -2.013397,0.208397 z"
         style="fill:#ffc024;fill-opacity:1;stroke:#262626;stroke-width:0"
         id="path14"
         inkscape:label="rectangulo" /><rect
         style="fill:#ffc024;fill-opacity:1;stroke:#262626;stroke-width:0;stroke-dasharray:none;stroke-opacity:1"
         id="rect11-1-2-1"
         width="2.0529315"
         height="2.1729877"
         x="-18.807566"
         y="44.810444"
         rx="0.48904097"
         transform="matrix(0.63527081,-0.77228945,0.78058218,0.62505316,0,0)" /><path
         d="m 24.679886,45.945043 -0.03561,0.04327 c 0.03986,-0.01359 0.07981,-0.02875 0.119424,-0.04467 -0.0281,0.0016 -0.05564,0.0016 -0.08382,0.0014 z"
         style="fill:#6b6b6b;stroke:#262626;stroke-width:0"
         id="path30" /><path
         d="m 23.521505,45.415527 -0.297729,0.361946 c 0.02867,0.04601 0.06078,0.09251 0.09486,0.137952 0.111195,0.05662 0.223412,0.09877 0.334738,0.127752 l 0.26375,-0.320635 c -0.04551,-0.02876 -0.09109,-0.05991 -0.134061,-0.09431 l -0.187409,-0.150068 c -0.02518,-0.02017 -0.05072,-0.0412 -0.07411,-0.06268 z"
         style="fill:#ffc024;fill-opacity:1;stroke:#262626;stroke-width:0"
         id="path27" /><path
         d="m 23.070116,44.267745 c -0.133883,0.435809 -0.146003,0.877534 0.04407,1.301243 l 0.258894,-0.314733 c -0.22702,-0.283975 -0.33146,-0.638001 -0.302959,-0.98651 z"
         style="fill:#ffc024;fill-opacity:1;stroke:#262626;stroke-width:0"
         id="path24" /><path
         d="m 25.310332,41.154384 -1.771808,2.153963 c -0.200505,0.311634 -0.368264,0.633397 -0.468408,0.959398 -0.03661,0.447798 0.143756,0.904708 0.525533,1.210416 l 0.187408,0.150068 c 0.288063,0.230667 0.63871,0.333713 0.980651,0.315419 0.534601,-0.2149 1.047477,-0.637209 1.508842,-1.098578 l 1.448191,-1.760545 z"
         style="fill:#ffc024;fill-opacity:1;stroke:#262626;stroke-width:0"
         id="path15" /><ellipse
         style="fill:#ffa947;fill-opacity:1;stroke:#262626;stroke-width:0;stroke-linecap:butt;stroke-dasharray:none;stroke-opacity:1"
         id="path20"
         cx="2.3998437"
         cy="46.681839"
         transform="matrix(0.63527081,-0.77228945,0.78058218,0.62505316,0,0)"
         rx="6.520546"
         ry="6.5386143" /><rect
         style="fill:#ffffff;fill-opacity:1;stroke:#262626;stroke-width:0;stroke-linecap:butt;stroke-dasharray:none;stroke-opacity:1"
         id="rect23"
         width="2.6611407"
         height="6.360568"
         x="3.0106225"
         y="43.316746"
         transform="matrix(0.63527081,-0.77228945,0.78058218,0.62505316,0,0)" /><path
         d="m 33.784473,24.014109 a 5.2586728,5.1884293 0 0 0 0.769292,7.298185 5.2586728,5.1884293 0 0 0 7.396989,-0.759014 5.2586728,5.1884293 0 0 0 -0.76929,-7.298185 5.2586728,5.1884293 0 0 0 -7.396991,0.759014 z m 3.338356,-0.03817 c 0.291011,-0.353777 0.848689,-0.380814 1.247606,-0.06138 l 2.888903,2.313295 c 0.398916,0.319434 0.484863,0.861855 0.193853,1.215634 -0.291011,0.353776 -0.846696,0.382408 -1.245613,0.06298 l -2.888902,-2.313294 c -0.398918,-0.319435 -0.486859,-0.863454 -0.195847,-1.21723 z"
         style="fill:#ffc124;fill-opacity:1;stroke:#17b6ff;stroke-width:0"
         id="path22" /><path
         d="m 23.917128,45.722535 -0.263749,0.320636 c 0.333589,0.08681 0.66558,0.0561 0.990909,-0.05486 l 0.03561,-0.04328 c -0.263562,-0.0013 -0.528207,-0.07436 -0.762757,-0.22251 z"
         style="fill:#ffaa47;fill-opacity:1;stroke:#262626;stroke-width:0"
         id="path29" /><path
         d="m 23.917128,45.722535 c 0.234554,0.148143 0.499196,0.221206 0.762758,0.222508 l 10.590406,-12.8746 -0.570205,-0.456593 z"
         style="fill:#ffaa47;fill-opacity:1;stroke:#262626;stroke-width:0"
         id="path28" /><path
         d="m 23.373074,45.254255 -0.258895,0.314733 c 0.03154,0.0703 0.06648,0.139279 0.109591,0.208489 l 0.297729,-0.361945 c -0.05531,-0.05062 -0.102988,-0.104445 -0.148432,-0.161272 z"
         style="fill:#ffaa47;fill-opacity:1;stroke:#262626;stroke-width:0"
         id="path26" /><path
         d="m 23.373074,45.254255 c 0.04544,0.05682 0.09311,0.110656 0.148432,0.161271 L 34.304464,32.306844 34.134997,32.171141 Z"
         style="fill:#ffaa47;fill-opacity:1;stroke:#262626;stroke-width:0"
         id="path25" /></g><g
       id="g2"
       inkscape:label="file"><rect
         style="fill:#ffbf24;fill-opacity:1;stroke:#ffa947;stroke-width:0;stroke-linecap:butt;stroke-dasharray:none;stroke-opacity:1"
         id="rect36"
         width="5.8142576"
         height="6.3174152"
         x="18.952246"
         y="19.119965" /><path
         class="st0"
         d="m 21.893507,17.532027 c 0.178568,0 0.354587,0.0104 0.528052,0.03113 v -1.530192 c -0.0829,-0.03113 -0.155609,-0.0804 -0.216833,-0.142645 -0.112243,-0.114122 -0.181119,-0.269729 -0.181119,-0.443496 0,-0.172471 0.06887,-0.32938 0.181119,-0.443496 0.112243,-0.114111 0.265302,-0.184142 0.436218,-0.184142 0.169639,0 0.323974,0.07003 0.436216,0.184142 0.112243,0.114122 0.18112,0.269728 0.18112,0.443496 0,0.172471 -0.06887,0.32938 -0.18112,0.443496 -0.05995,0.06095 -0.135201,0.111524 -0.216833,0.142645 v 1.604107 c 0.410708,0.09077 0.799732,0.238607 1.15942,0.434419 v -0.591328 c 0,-0.123193 0.09821,-0.223046 0.219384,-0.223046 h 1.535688 c 0.03061,-0.0791 0.07781,-0.150425 0.136478,-0.210076 0.112242,-0.114111 0.265301,-0.184142 0.436216,-0.184142 0.169641,0 0.323975,0.07003 0.436218,0.184142 0.112242,0.114122 0.181119,0.269728 0.181119,0.443496 0,0.172471 -0.06887,0.32938 -0.181119,0.443496 -0.112243,0.11411 -0.265302,0.184142 -0.436218,0.184142 v 0 c -0.170915,0 -0.325248,-0.07003 -0.434941,-0.184142 -0.06377,-0.06484 -0.113517,-0.143942 -0.144131,-0.232122 h -1.307376 v 0.643198 c 0.913251,0.643201 1.581606,1.61967 1.834154,2.756939 h 2.785667 v -2.286209 c -0.0676,-0.03113 -0.1301,-0.07521 -0.18112,-0.128382 -0.112242,-0.11411 -0.18112,-0.269728 -0.18112,-0.443496 0,-0.172471 0.06887,-0.32938 0.18112,-0.443496 0.112243,-0.114123 0.265303,-0.184141 0.436218,-0.184141 0.169639,0 0.323974,0.07003 0.436216,0.184141 0.112243,0.114122 0.18112,0.269729 0.18112,0.443496 0,0.172471 -0.06887,0.329381 -0.18112,0.443496 -0.07015,0.07132 -0.156884,0.12449 -0.252546,0.155613 v 2.483321 c 0,0.123193 -0.09821,0.223044 -0.219385,0.223044 h -2.927245 c 0.02296,0.186735 0.03444,0.377361 0.03444,0.571877 0,0.259354 -0.02168,0.513521 -0.0625,0.761205 h 2.411949 c 0.03061,-0.08429 0.07908,-0.158206 0.140303,-0.220451 0.112243,-0.114122 0.265303,-0.184141 0.436218,-0.184141 0.16964,0 0.323974,0.07003 0.436218,0.184141 0.112242,0.114123 0.181118,0.269729 0.181118,0.443497 0,0.172471 -0.06887,0.329379 -0.181118,0.443496 -0.112243,0.114122 -0.265303,0.184142 -0.436218,0.184142 -0.169641,0 -0.323974,-0.07003 -0.436218,-0.184142 -0.05995,-0.06095 -0.109693,-0.136161 -0.140303,-0.220452 h -2.50761 c -0.283159,1.055574 -0.926005,1.959424 -1.788236,2.566313 v 0.278806 h 1.307376 c 0.03061,-0.08818 0.08036,-0.167284 0.144131,-0.232122 0.109693,-0.114111 0.265301,-0.184141 0.434941,-0.184141 v 0 c 0.170915,0 0.323975,0.07003 0.436217,0.184141 0.112243,0.114122 0.18112,0.271026 0.18112,0.443496 0,0.173768 -0.06887,0.329381 -0.18112,0.443497 -0.112242,0.114111 -0.266577,0.184141 -0.436217,0.184141 -0.170916,0 -0.323974,-0.07003 -0.436217,-0.184141 -0.0574,-0.05836 -0.104595,-0.129678 -0.136477,-0.210078 h -1.534413 c -0.121171,0 -0.219384,-0.09985 -0.219384,-0.223044 v -0.226938 c -0.359688,0.195813 -0.749987,0.343645 -1.15942,0.434419 v 1.239714 c 0.08291,0.03113 0.156886,0.08169 0.216834,0.142645 0.112242,0.114123 0.181119,0.271026 0.181119,0.443497 0,0.173766 -0.06887,0.32938 -0.181119,0.443496 -0.112243,0.114122 -0.266577,0.184142 -0.436217,0.184142 -0.170916,0 -0.323975,-0.07003 -0.436218,-0.184142 -0.112242,-0.114123 -0.181119,-0.271025 -0.181119,-0.443496 0,-0.173768 0.06887,-0.32938 0.181119,-0.443497 0.06123,-0.06224 0.133927,-0.111523 0.216834,-0.142645 v -1.164501 c -0.173467,0.02074 -0.349484,0.03113 -0.528053,0.03113 -0.266576,0 -0.528052,-0.02334 -0.781874,-0.06873 v 1.754534 c 0,0.123193 -0.09821,0.223045 -0.219384,0.223045 h -2.443837 c -0.03061,0.09855 -0.0829,0.186734 -0.153058,0.256761 -0.112243,0.11411 -0.266577,0.184142 -0.436218,0.184142 -0.170915,0 -0.323974,-0.07003 -0.436217,-0.184142 -0.112242,-0.114122 -0.181119,-0.271026 -0.181119,-0.443497 0,-0.173767 0.06887,-0.32938 0.181119,-0.443495 0.112243,-0.114111 0.266577,-0.184143 0.436217,-0.184143 0.170916,0 0.323974,0.07003 0.436218,0.184143 0.05229,0.05316 0.09439,0.115416 0.126273,0.18414 h 2.249963 v -1.632636 c -0.419637,-0.119308 -0.815038,-0.299554 -1.176001,-0.53038 -0.03955,0.03631 -0.09056,0.05836 -0.147957,0.05836 h -1.334162 c -0.03061,0.08169 -0.07908,0.154316 -0.139028,0.213967 -0.112242,0.114123 -0.266577,0.184142 -0.436217,0.184142 -0.16964,0 -0.323974,-0.07003 -0.436217,-0.184142 -0.112242,-0.112816 -0.18112,-0.269728 -0.18112,-0.443496 0,-0.173768 0.06887,-0.32938 0.18112,-0.443496 0.112243,-0.11411 0.266577,-0.184142 0.436217,-0.184142 0.16964,0 0.323975,0.07003 0.436217,0.184142 0.0625,0.06355 0.112243,0.141348 0.142855,0.226936 h 0.957895 C 18.14485,24.90419 17.572156,23.887521 17.420372,22.733392 h -2.267819 v 2.287507 c 0.0676,0.03113 0.1301,0.07521 0.18112,0.12838 0.112242,0.114123 0.181119,0.26973 0.181119,0.443498 0,0.17247 -0.06887,0.32938 -0.181119,0.443495 -0.112243,0.114122 -0.265301,0.184142 -0.436218,0.184142 -0.169639,0 -0.323974,-0.07003 -0.436216,-0.184142 -0.112243,-0.112817 -0.18112,-0.269728 -0.18112,-0.443495 0,-0.172471 0.06887,-0.329381 0.18112,-0.443498 0.07015,-0.07132 0.156885,-0.12449 0.252546,-0.155611 v -2.482024 c 0,-0.123193 0.09821,-0.223044 0.219385,-0.223044 h 2.448937 c -0.0026,-0.05576 -0.0026,-0.111524 -0.0026,-0.167284 0,-0.403297 0.05102,-0.793626 0.146682,-1.165799 h -2.050986 c -0.03061,0.08429 -0.07908,0.158206 -0.140304,0.220452 -0.112242,0.114122 -0.265302,0.184141 -0.436216,0.184141 -0.169641,0 -0.323975,-0.07002 -0.436218,-0.184141 -0.112242,-0.114123 -0.181119,-0.26973 -0.181119,-0.443497 0,-0.172471 0.06887,-0.329381 0.181119,-0.443496 0.112243,-0.11411 0.265302,-0.184142 0.436218,-0.184142 0.16964,0 0.323974,0.07003 0.436216,0.184142 0.05995,0.06095 0.109694,0.136161 0.140304,0.220451 h 2.190014 c 0.295914,-0.802702 0.807385,-1.497773 1.461711,-2.013888 v -0.238606 h -1.109676 c -0.03061,0.08558 -0.08036,0.163394 -0.142854,0.226935 -0.112243,0.114123 -0.266578,0.184142 -0.436218,0.184142 -0.169639,0 -0.323974,-0.07002 -0.436217,-0.184142 -0.112243,-0.114122 -0.181119,-0.269729 -0.181119,-0.443496 0,-0.173768 0.06887,-0.330677 0.181119,-0.443496 0.112242,-0.11411 0.266578,-0.184142 0.436217,-0.184142 0.16964,0 0.323974,0.07003 0.436218,0.184142 0.05995,0.06095 0.107144,0.133567 0.139028,0.213968 h 1.334161 c 0.121172,0 0.219385,0.09985 0.219385,0.223044 v 0.155613 c 0.34183,-0.20878 0.712998,-0.37347 1.104572,-0.48629 v -1.998326 h -2.248686 c -0.03061,0.06873 -0.07398,0.13227 -0.126274,0.184142 -0.112243,0.11411 -0.265302,0.184142 -0.436217,0.184142 -0.16964,0 -0.323974,-0.07003 -0.436217,-0.184142 -0.112243,-0.114123 -0.181119,-0.26973 -0.181119,-0.443496 0,-0.172471 0.06887,-0.329381 0.181119,-0.443497 0.112242,-0.11411 0.265301,-0.184141 0.436217,-0.184141 0.16964,0 0.323974,0.07003 0.436217,0.184141 0.07015,0.07132 0.122447,0.159503 0.153058,0.256761 h 2.442562 c 0.121171,0 0.219384,0.09985 0.219384,0.223044 v 2.118927 c 0.253824,-0.04539 0.515298,-0.06873 0.781876,-0.06873 z m -1.816296,4.130221 h 0.360963 v -0.0441 -0.730083 c 0,-0.417561 0.168365,-0.796218 0.438769,-1.071133 v 0 c 0.270403,-0.274917 0.644121,-0.446091 1.054829,-0.446091 0.410708,0 0.78315,0.171174 1.053554,0.446091 v 0 c 0.270404,0.274915 0.438768,0.654869 0.438768,1.071133 v 0.730083 0.04408 h 0.286984 c 0.06377,0 0.11607,0.05316 0.11607,0.118003 v 2.497585 c 0,0.06484 -0.05229,0.118003 -0.11607,0.118003 h -3.633867 c -0.06377,0 -0.116069,-0.05316 -0.116069,-0.118003 v -2.497584 c 0,-0.06484 0.05229,-0.118003 0.116069,-0.118003 z m 0.940036,0 h 1.825223 v -0.0441 -0.737863 c 0,-0.255464 -0.10332,-0.487587 -0.267852,-0.656167 v 0 c -0.165814,-0.168575 -0.394126,-0.272316 -0.644122,-0.272316 -0.251271,0 -0.479584,0.105032 -0.645396,0.272322 -0.165814,0.16858 -0.267853,0.400703 -0.267853,0.656167 v 0.737863 z m 0.920902,1.366798 0.18367,0.864948 -0.505092,0.0013 0.147955,-0.876671 c -0.137752,-0.04539 -0.238515,-0.176361 -0.238515,-0.331974 0,-0.191923 0.153058,-0.347534 0.34183,-0.347534 0.188773,0 0.341831,0.155611 0.341831,0.347534 0.0026,0.169877 -0.116069,0.309929 -0.271679,0.342349 z"
         id="path1-3"
         style="stroke-width:0.128609" /></g><path
       style="fill:url(#linearGradient7);stroke:#000000;stroke-width:0.160676;stroke-linejoin:round;stroke-dasharray:none;stroke-opacity:1"
       d="m 30.848372,43.64881 c -1.997871,-0.21494 -3.446256,-0.723333 -4.144315,-1.454682 -0.711183,-0.745104 -0.75436,-1.029299 -0.812641,-5.348924 -0.05977,-4.430183 -0.02177,-4.713183 0.668866,-4.979616 0.563595,-0.217425 0.756149,-0.20001 1.255671,0.113555 l 0.432406,0.271439 7.84e-4,4.053496 c 4.57e-4,2.359521 0.0591,4.210107 0.140327,4.428246 0.341863,0.918087 1.318039,1.150509 5.135108,1.222639 3.963692,0.0749 6.143548,-0.183208 6.441638,-0.762723 0.04819,-0.09368 0.08761,-5.967027 0.08761,-13.051904 V 15.258742 l -6.714013,0.06288 c -5.194439,0.04865 -6.787456,0.03355 -7.038499,-0.06667 -0.462375,-0.184615 -0.727101,-0.702554 -0.551333,-1.078705 0.271328,-0.580653 0.239303,-0.578302 8.448135,-0.620537 l 7.565976,-0.03893 0.341509,0.29595 0.341512,0.295948 -0.03718,13.701111 -0.03718,13.701112 -0.303902,0.419387 c -1.011656,1.396095 -2.945714,1.844994 -7.847488,1.821418 -1.391358,-0.0068 -2.909203,-0.053 -3.372989,-0.102885 z"
       id="path6" /></g><style
     type="text/css"
     id="style1">.st0{fill-rule:evenodd;clip-rule:evenodd;}</style></svg>
