<?xml version="1.0" encoding="UTF-8" standalone="no"?>
<!-- Created with Inkscape (http://www.inkscape.org/) -->

<svg
   width="48"
   height="48"
   viewBox="0 0 48 48"
   version="1.1"
   id="svg1"
   inkscape:version="1.4.2 (f4327f4, 2025-05-13)"
   sodipodi:docname="lock_file.svg"
   xml:space="preserve"
   xmlns:inkscape="http://www.inkscape.org/namespaces/inkscape"
   xmlns:sodipodi="http://sodipodi.sourceforge.net/DTD/sodipodi-0.dtd"
   xmlns="http://www.w3.org/2000/svg"
   xmlns:svg="http://www.w3.org/2000/svg"><sodipodi:namedview
     id="namedview1"
     pagecolor="#ffffff"
     bordercolor="#000000"
     borderopacity="0.25"
     inkscape:showpageshadow="2"
     inkscape:pageopacity="0.0"
     inkscape:pagecheckerboard="0"
     inkscape:deskcolor="#d1d1d1"
     inkscape:document-units="px"
     inkscape:zoom="17.887063"
     inkscape:cx="20.741247"
     inkscape:cy="24.459018"
     inkscape:window-width="1920"
     inkscape:window-height="1111"
     inkscape:window-x="-9"
     inkscape:window-y="-9"
     inkscape:window-maximized="1"
     inkscape:current-layer="layer1"><inkscape:page
       x="0"
       y="0"
       width="48"
       height="48"
       id="page2"
       margin="0"
       bleed="0" /></sodipodi:namedview><defs
     id="defs1" /><g
     inkscape:label="Capa 1"
     inkscape:groupmode="layer"
     id="layer1"
     style="fill:#ffffff;fill-opacity:0.911985"><path
       d="M 36.858087,11.369374 32.796878,5.81111 H 11.776832 v 34.668779 h 25.081255 z"
       style="fill:#ffffff;fill-opacity:0.911985;stroke:#000000;stroke-width:1.317;stroke-linejoin:round;stroke-dasharray:none;stroke-opacity:1"
       id="path9"
       inkscape:highlight-color="#262626" /><path
       fill-rule="evenodd"
       clip-rule="evenodd"
       d="m 19.528862,22.743554 h 0.884994 v -0.09589 -1.591872 c 0,-0.910391 0.412614,-1.738174 1.07653,-2.337936 v -7.83e-4 c 0.664212,-0.599848 1.581013,-0.97248 2.589779,-0.97248 1.007975,0 1.924578,0.372632 2.588792,0.97248 l 9.88e-4,7.83e-4 c 0.663919,0.599762 1.076532,1.427545 1.076532,2.337936 v 1.591872 0.09589 h 0.704911 c 0.157065,0 0.28568,0.116143 0.28568,0.257905 v 5.447363 c 0,0.14175 -0.128601,0.257907 -0.28568,0.257907 h -8.922526 c -0.157065,0 -0.285677,-0.116142 -0.285677,-0.257907 v -5.447363 c 0,-0.141751 0.128614,-0.257905 0.285677,-0.257905 z m 2.309435,0 h 4.483437 v -0.09589 -1.610249 c 0,-0.556672 -0.252288,-1.063121 -0.658086,-1.430041 l -4.88e-4,3.58e-4 c -0.406093,-0.367014 -0.966784,-0.594946 -1.582988,-0.594946 -0.616502,0 -1.177192,0.227844 -1.583779,0.594588 -0.405898,0.36692 -0.658089,0.873369 -0.658089,1.430041 v 1.610337 z m 2.259946,2.980693 0.452522,1.885821 -1.240411,0.0047 0.364013,-1.911154 c -0.338922,-0.09811 -0.584592,-0.384916 -0.584592,-0.723558 0,-0.419378 0.37636,-0.759268 0.840934,-0.759268 0.464079,0 0.840736,0.33989 0.840736,0.759268 0,0.367545 -0.289234,0.674163 -0.673202,0.744193 z"
       id="path1"
       style="opacity:1;fill:#000000;fill-opacity:0.911985;stroke-width:0.0938745"
       inkscape:label="cantado" /></g><style
     type="text/css"
     id="style1">.st0{fill-rule:evenodd;clip-rule:evenodd;}</style></svg>
